<?xml version="1.0" standalone="no"?>
<!DOCTYPE svg PUBLIC "-//W3C//DTD SVG 20010904//EN"
 "http://www.w3.org/TR/2001/REC-SVG-20010904/DTD/svg10.dtd">
<svg version="1.0" xmlns="http://www.w3.org/2000/svg"
 width="512.000000pt" height="512.000000pt" viewBox="0 0 512.000000 512.000000"
 preserveAspectRatio="xMidYMid meet">

<g transform="translate(0.000000,512.000000) scale(0.100000,-0.100000)"
fill="#000000" stroke="none">
<path d="M2320 4615 l0 -66 43 3 42 3 0 60 0 60 -42 3 -43 3 0 -66z m70 -9 c0
-22 -6 -36 -16 -40 -24 -9 -34 2 -34 40 0 30 3 34 25 34 22 0 25 -4 25 -34z"/>
<path d="M2710 4621 c0 -57 2 -61 23 -60 12 0 16 3 10 6 -7 2 -13 20 -13 39 0
30 3 34 26 34 24 0 26 -3 22 -40 -2 -25 0 -39 7 -37 5 2 10 28 10 58 l0 54
-42 3 -43 3 0 -60z"/>
<path d="M2050 4421 c0 -6 4 -13 10 -16 6 -3 7 1 4 9 -7 18 -14 21 -14 7z"/>
<path d="M1990 4398 c0 -11 22 -10 39 1 10 7 7 9 -12 8 -15 -1 -27 -5 -27 -9z"/>
<path d="M1970 4340 c-19 -11 -30 -19 -25 -19 6 0 26 8 45 19 19 11 31 19 25
19 -5 0 -26 -8 -45 -19z"/>
<path d="M3898 4320 c41 -25 54 -25 23 0 -13 11 -31 20 -40 20 -9 0 -3 -8 17
-20z"/>
<path d="M1209 4309 l-24 -20 30 17 c39 24 40 24 28 24 -6 0 -21 -9 -34 -21z"/>
<path d="M1866 4322 c-8 -13 -79 -52 -94 -52 -5 0 -15 11 -22 25 -7 14 -17 25
-22 25 -5 0 1 -18 13 -40 14 -24 30 -40 41 -40 12 0 16 4 12 12 -5 7 -3 8 5 3
13 -7 92 22 90 34 0 3 -4 15 -8 25 -5 14 -10 16 -15 8z"/>
<path d="M3231 4316 c-11 -13 -5 -19 37 -40 27 -14 52 -22 56 -19 3 4 6 1 6
-5 0 -7 7 -12 16 -12 17 0 43 27 43 45 0 6 -6 2 -13 -8 -13 -16 -16 -16 -66 7
-29 14 -56 30 -60 36 -5 8 -11 6 -19 -4z"/>
<path d="M2205 4260 c-22 -5 -98 -41 -170 -80 -71 -40 -175 -94 -230 -121 -82
-41 -115 -65 -184 -132 -119 -117 -524 -663 -568 -765 -14 -31 -16 -101 -18
-452 -1 -228 0 -491 3 -584 l4 -169 106 -156 c230 -339 391 -535 524 -638 32
-24 152 -91 267 -149 135 -68 220 -117 242 -139 l34 -35 325 0 c179 0 335 3
348 6 12 4 22 12 22 19 0 15 140 93 325 181 77 36 167 85 200 109 133 95 321
324 575 705 l64 95 7 100 c10 128 11 496 2 835 l-6 264 -65 96 c-36 52 -95
136 -132 185 -37 50 -111 153 -165 230 -70 100 -132 173 -216 256 -65 64 -120
115 -123 112 -3 -3 -108 48 -233 113 l-228 119 -335 2 c-184 1 -353 -3 -375
-7z m305 -270 c0 -5 -4 -10 -9 -10 -6 0 -13 5 -16 10 -3 6 1 10 9 10 9 0 16
-4 16 -10z m155 0 c3 -5 -3 -10 -14 -10 -12 0 -21 5 -21 10 0 6 6 10 14 10 8
0 18 -4 21 -10z m613 -357 c-6 -7 -17 -13 -24 -13 -8 0 -14 -2 -14 -3 0 -2 49
-53 108 -113 60 -60 140 -152 179 -204 73 -97 123 -154 181 -203 52 -44 37
-15 -36 69 -75 88 -127 154 -120 154 3 0 -15 21 -39 47 -23 26 -42 53 -40 60
1 8 -41 56 -92 108 -73 73 -91 96 -79 100 11 4 35 -8 67 -34 57 -44 78 -68
139 -156 60 -86 123 -160 136 -160 6 -1 10 -6 8 -13 -1 -7 3 -11 10 -10 7 2
12 -4 13 -13 0 -15 57 -71 70 -70 3 1 6 -2 8 -5 1 -4 16 -21 33 -39 62 -66 67
-107 68 -600 1 -488 2 -478 -65 -526 -30 -21 -31 -21 -20 -2 7 14 13 153 17
389 6 380 0 592 -18 561 -5 -10 -7 -21 -3 -26 3 -5 -5 -11 -17 -13 l-23 -3 -5
-456 -5 -456 -56 -69 c-31 -38 -87 -112 -124 -164 -89 -125 -182 -235 -245
-289 -28 -24 -49 -45 -46 -48 2 -3 20 0 40 7 55 18 184 164 334 380 17 25 43
59 57 75 l27 30 -21 -30 c-119 -168 -149 -218 -157 -264 -2 -8 -12 -27 -23
-42 -12 -16 -21 -34 -21 -41 0 -9 3 -9 10 2 5 8 10 11 10 7 0 -14 -106 -151
-160 -205 -29 -29 -82 -70 -119 -91 -100 -59 -220 -116 -227 -109 -15 16 10
46 59 71 75 38 160 87 172 99 13 13 -61 -21 -109 -50 -44 -27 -224 -112 -237
-112 -5 0 -9 12 -9 28 0 37 -10 72 -21 72 -5 0 -9 -24 -9 -54 0 -42 -4 -56
-17 -61 -25 -11 -429 -17 -483 -7 l-45 8 1 57 c2 43 -2 57 -12 57 -10 0 -14
-13 -14 -46 l0 -47 -32 6 c-18 4 -44 9 -58 13 -21 6 -23 4 -12 -7 21 -22 15
-41 -10 -33 -71 21 -135 50 -233 105 -108 60 -169 105 -160 119 3 4 -3 14 -13
21 -16 13 -16 13 -2 -6 14 -19 14 -19 -2 -6 -10 7 -16 17 -13 21 3 4 -5 20
-17 36 -13 15 -16 24 -8 19 8 -4 5 3 -6 16 -12 13 -20 29 -18 34 2 6 -14 33
-36 60 -68 87 -100 135 -106 163 -4 15 -11 30 -17 33 -5 4 -8 12 -5 19 2 7 30
-25 61 -72 65 -96 200 -244 245 -271 57 -33 42 1 -28 63 -70 62 -148 158 -190
233 -13 22 -18 37 -11 33 15 -10 14 0 -5 29 -9 14 -22 25 -29 25 -8 0 -16 8
-20 19 -3 10 -34 49 -69 86 -44 46 -67 79 -72 104 -4 20 -7 238 -5 484 l3 448
-26 -7 c-27 -6 -27 -6 -20 32 10 58 19 71 113 169 48 50 119 133 158 185 39
52 108 131 152 175 73 72 85 80 121 81 22 0 40 0 40 -1 0 -2 -8 -9 -17 -16
-14 -12 -16 -12 -8 0 5 10 4 12 -4 7 -6 -4 -8 -12 -5 -18 4 -5 -27 -44 -69
-87 -70 -71 -309 -362 -274 -333 9 8 21 11 26 8 5 -4 16 2 23 13 8 11 20 21
28 23 8 2 28 17 44 33 16 17 23 22 16 13 -18 -25 -7 -22 16 4 10 12 13 18 5
13 -9 -5 -12 -3 -9 6 3 8 10 13 16 12 6 -2 9 3 6 10 -9 24 193 212 228 212 7
0 23 6 35 13 13 7 38 12 55 11 18 -1 58 8 88 20 30 13 55 22 55 21 0 -1 11 3
25 8 14 5 45 13 70 17 25 4 54 12 65 17 14 7 17 7 10 0 -5 -6 -50 -25 -100
-42 -136 -48 -185 -80 -250 -163 l-56 -72 50 55 c28 30 51 51 51 46 0 -7 86
57 100 75 10 12 45 27 124 53 43 14 88 33 99 43 14 13 18 13 12 3 -7 -12 -6
-13 6 -4 17 14 24 14 176 14 82 1 134 -4 160 -14 21 -8 56 -18 78 -22 22 -4
42 -8 45 -9 24 -5 108 -42 118 -51 6 -7 22 -16 33 -19 12 -4 30 -14 40 -23 10
-10 28 -25 39 -34 11 -10 25 -18 30 -18 6 0 10 -4 10 -9 0 -5 12 -11 28 -14
46 -10 222 -173 222 -206 0 -5 4 -11 9 -13 10 -3 71 -140 71 -158 0 -9 -29
-11 -104 -8 -93 3 -106 1 -110 -14 -2 -10 0 -21 6 -24 5 -4 8 -21 6 -39 -2
-19 -1 -32 3 -29 9 5 21 -25 14 -36 -3 -5 5 -41 19 -82 34 -106 49 -208 49
-339 0 -111 -2 -120 -47 -250 -26 -74 -48 -144 -50 -156 -2 -12 -20 -45 -40
-75 -21 -29 -28 -42 -16 -28 56 64 107 117 119 124 11 7 12 1 7 -35 -6 -44 -6
-44 34 -62 30 -13 40 -23 40 -40 0 -19 57 -85 75 -87 3 0 9 0 15 0 5 0 7 -8 3
-17 -3 -10 6 -3 21 16 14 19 26 36 26 38 0 2 -9 12 -20 23 -19 19 -19 32 -14
562 5 611 7 661 29 695 16 24 14 26 -61 121 -43 53 -121 142 -175 197 -54 55
-99 103 -101 106 -5 11 34 49 43 43 5 -3 11 1 14 8 3 8 14 14 25 14 14 0 16
-3 8 -13z m-1527 -98 c-48 -49 -117 -128 -152 -175 -34 -47 -93 -118 -131
-159 -37 -41 -83 -100 -101 -131 l-34 -56 4 -488 c2 -308 7 -495 13 -507 13
-23 -2 -26 -20 -4 -7 8 -18 15 -25 15 -39 0 -49 157 -38 635 l8 350 28 55 c30
61 64 101 120 144 21 16 67 72 104 125 71 102 227 271 250 271 7 0 13 4 13 9
0 5 11 8 25 7 22 -1 15 -10 -64 -91z m1589 -637 c0 -15 -19 -8 -29 11 -14 25
0 37 16 15 7 -10 13 -21 13 -26z m60 13 c0 -25 -20 -38 -21 -14 0 16 -1 16 -8
-1 -8 -20 -12 -16 -24 17 -5 14 -1 17 23 17 23 0 30 -5 30 -19z m360 -31 c0
-5 -5 -10 -11 -10 -5 0 -7 5 -4 10 3 6 8 10 11 10 2 0 4 -4 4 -10z m-2377 -57
c-7 -2 -21 -2 -30 0 -10 3 -4 5 12 5 17 0 24 -2 18 -5z m2377 -3 c-20 -13 -33
-13 -25 0 3 6 14 10 23 10 15 0 15 -2 2 -10z m-4 -378 c-11 -10 -12 3 -7 53
l6 50 3 -49 c2 -26 1 -51 -2 -54z m-346 53 c0 -8 -2 -15 -4 -15 -2 0 -6 7 -10
15 -3 8 -1 15 4 15 6 0 10 -7 10 -15z m-2023 -47 c-3 -8 -6 -5 -6 6 -1 11 2
17 5 13 3 -3 4 -12 1 -19z m2365 -218 c-2 -126 -6 -190 -13 -190 -6 0 -8 7 -5
16 3 9 6 94 6 190 0 96 3 174 8 174 4 0 6 -85 4 -190z m-2375 13 c-2 -27 -3
-5 -3 47 0 52 1 74 3 48 2 -27 2 -69 0 -95z m2003 87 c0 -5 -4 -10 -10 -10 -5
0 -10 5 -10 10 0 6 5 10 10 10 6 0 10 -4 10 -10z m30 0 c0 -5 -5 -10 -11 -10
-5 0 -7 5 -4 10 3 6 8 10 11 10 2 0 4 -4 4 -10z m357 -42 c-3 -8 -6 -5 -6 6
-1 11 2 17 5 13 3 -3 4 -12 1 -19z m-2390 -135 c-3 -10 -5 -4 -5 12 0 17 2 24
5 18 2 -7 2 -21 0 -30z m0 -80 c-3 -10 -5 -4 -5 12 0 17 2 24 5 18 2 -7 2 -21
0 -30z m54 -150 c13 -16 12 -17 -3 -4 -10 7 -18 15 -18 17 0 8 8 3 21 -13z
m403 -653 c75 -45 267 -144 304 -154 12 -4 22 -11 22 -16 0 -9 -69 19 -173 71
-113 57 -221 127 -277 179 l-55 52 55 -45 c30 -25 86 -63 124 -87z m1516 36
c0 -2 -8 -10 -17 -17 -16 -13 -17 -12 -4 4 13 16 21 21 21 13z m-40 -30 c0 -7
-119 -80 -177 -110 -85 -43 -75 -29 13 18 45 24 99 55 120 70 40 27 44 29 44
22z m-1629 -63 c13 -16 12 -17 -3 -4 -17 13 -22 21 -14 21 2 0 10 -8 17 -17z
m639 -113 c0 -6 -11 -8 -27 -4 -40 10 -41 14 -5 14 18 0 32 -5 32 -10z m525 0
c4 -6 -8 -10 -30 -10 -22 0 -34 4 -30 10 3 6 17 10 30 10 13 0 27 -4 30 -10z
m-345 -35 c0 -16 -17 -19 -44 -9 -26 10 -18 24 14 24 20 0 30 -5 30 -15z m160
0 c0 -9 -9 -15 -25 -15 -24 0 -32 10 -18 23 12 13 43 7 43 -8z m-67 -192 c-40
-2 -106 -2 -145 0 -40 1 -8 3 72 3 80 0 112 -2 73 -3z"/>
<path d="M1875 3419 c-17 -12 -39 -33 -49 -48 -12 -16 0 -9 30 18 27 25 51 46
53 48 2 2 2 3 0 3 -2 0 -18 -10 -34 -21z"/>
<path d="M2572 3089 l-2 -46 -67 -6 c-63 -6 -177 -36 -215 -57 -14 -8 -21 -4
-33 18 l-15 27 6 -37 c4 -22 2 -38 -3 -38 -6 0 -40 -30 -77 -67 -70 -70 -115
-149 -151 -263 -10 -30 -19 -56 -20 -58 -9 -10 -64 31 -68 50 -4 20 -4 19 -6
-5 -1 -21 5 -30 24 -37 21 -8 25 -16 25 -52 0 -98 60 -257 141 -374 99 -144
293 -247 459 -242 l65 2 -65 7 c-63 6 -62 6 20 4 47 -1 94 1 105 6 l20 8 -20
1 c-15 1 -12 4 10 11 17 5 36 7 43 4 25 -9 134 58 201 125 96 94 181 272 181
380 0 27 5 50 11 52 8 3 9 13 4 28 -7 23 -8 24 -15 5 -6 -16 -8 -13 -13 14 -4
18 -4 38 -1 43 4 6 3 13 -2 17 -12 8 -56 111 -57 133 -1 9 -6 14 -11 11 -5 -4
-7 1 -3 11 4 10 3 15 -3 11 -9 -6 -14 8 -11 28 1 5 -3 6 -9 2 -5 -3 -10 -2
-10 4 0 15 -151 171 -166 171 -7 0 -47 11 -89 25 -42 13 -98 27 -125 31 l-49
6 -4 47 -3 46 -2 -46z m-4 -202 c3 -23 0 -27 -22 -27 -31 0 -40 14 -26 40 16
29 44 21 48 -13z m67 -208 c78 -37 135 -124 135 -206 0 -114 -75 -239 -173
-288 -38 -19 -56 -19 -97 2 -123 61 -185 279 -114 400 58 100 156 136 249 92z
m-648 -196 c-2 -16 -4 -5 -4 22 0 28 2 40 4 28 2 -13 2 -35 0 -50z m1117 21
c11 -29 6 -111 -9 -145 -14 -33 -14 -33 -15 -7 0 15 6 30 13 35 8 5 2 9 -17
13 -26 4 -29 10 -32 47 -2 34 1 45 19 58 27 19 33 19 41 -1z m-1027 -7 c14 -9
6 -44 -13 -51 -8 -3 -14 -2 -14 3 0 5 -9 11 -20 14 -32 8 -26 42 8 42 15 0 32
-4 39 -8z m-5 -89 c-17 -8 -26 -8 -34 0 -9 9 -4 12 23 11 32 0 33 -1 11 -11z
m947 -235 c-37 -47 -79 -89 -129 -127 -80 -62 -93 -66 -30 -10 30 27 78 72
106 101 49 51 82 72 53 36z m-443 -38 c16 -24 16 -27 -1 -45 -39 -43 -92 -3
-60 46 20 31 40 31 61 -1z m76 -197 c-22 -8 -167 -8 -207 1 -16 4 27 7 97 6
70 0 119 -3 110 -7z"/>
<path d="M2495 2605 c-41 -20 -56 -47 -62 -111 -6 -54 -5 -55 36 -94 32 -31
49 -40 74 -39 29 1 30 2 7 8 -36 9 -53 22 -78 58 -26 37 -28 62 -5 100 34 60
112 71 163 23 29 -27 32 -35 27 -72 -3 -22 -15 -54 -27 -70 -11 -15 -16 -28
-11 -28 5 0 13 5 16 10 4 6 12 7 18 4 7 -4 9 -4 5 1 -4 4 -1 13 8 20 21 15 21
103 -1 144 -29 56 -107 77 -170 46z"/>
<path d="M2260 3065 c-14 -8 -20 -14 -15 -14 6 0 21 6 35 14 14 8 21 14 15 14
-5 0 -21 -6 -35 -14z"/>
<path d="M3750 3040 c6 -11 13 -20 16 -20 2 0 0 9 -6 20 -6 11 -13 20 -16 20
-2 0 0 -9 6 -20z"/>
<path d="M2147 2993 c-31 -27 -71 -66 -88 -88 -31 -40 -31 -40 12 5 25 25 67
64 94 87 28 24 48 43 45 43 -3 0 -31 -21 -63 -47z"/>
<path d="M2925 3024 c6 -6 42 -39 80 -74 65 -60 66 -60 20 -11 -27 29 -63 62
-80 73 -16 12 -25 17 -20 12z"/>
<path d="M1653 2416 l-1 -499 -31 -13 c-17 -7 -31 -17 -30 -21 1 -24 89 -148
104 -147 12 2 13 -1 4 -12 -13 -15 1 -30 145 -159 44 -38 85 -76 92 -82 41
-40 143 13 165 86 10 32 8 43 -10 79 -12 23 -21 49 -21 59 0 14 -2 15 -9 4 -7
-11 -15 -8 -37 16 -16 17 -60 59 -99 94 -46 41 -55 48 -27 18 23 -24 42 -48
42 -53 0 -4 14 -19 31 -33 20 -18 29 -32 26 -45 -4 -15 -3 -17 8 -8 10 8 17 6
29 -12 24 -34 19 -44 -9 -18 -14 13 -25 20 -25 15 0 -5 -13 4 -30 20 -16 15
-28 31 -27 34 4 14 -42 53 -54 46 -7 -5 -10 -4 -6 2 4 6 -14 18 -41 28 -26 10
-59 29 -74 43 -28 25 -30 49 -13 116 l8 29 29 -34 30 -34 -26 40 c-38 58 -35
76 10 70 20 -2 43 -10 52 -17 13 -11 15 -10 9 12 -6 24 -6 24 16 -4 22 -27 23
-27 37 -10 13 17 13 18 -1 7 -13 -10 -20 -4 -47 40 -17 29 -46 95 -64 147 -31
90 -32 102 -32 240 0 105 5 166 18 220 10 41 19 85 20 98 0 12 3 22 6 22 3 0
5 11 5 25 0 32 -6 32 -33 -5 -20 -27 -28 -30 -77 -30 l-54 0 -4 63 c-2 34 -4
-163 -4 -437z m74 72 c-3 -8 -6 -5 -6 6 -1 11 2 17 5 13 3 -3 4 -12 1 -19z
m13 -138 c0 -11 -4 -20 -10 -20 -5 0 -10 9 -10 20 0 11 5 20 10 20 6 0 10 -9
10 -20z m-33 -112 c-2 -13 -4 -3 -4 22 0 25 2 35 4 23 2 -13 2 -33 0 -45z
m239 -580 c8 -26 -17 -48 -57 -48 -42 0 -50 37 -15 67 31 26 60 19 72 -19z"/>
<path d="M3156 2644 c-23 -22 -21 -58 2 -50 14 5 14 4 -2 -9 -16 -12 -22 -12
-28 -2 -5 8 -8 7 -8 -5 0 -22 1 -22 45 -1 28 14 35 22 31 38 -3 11 -6 26 -6
33 0 17 -15 15 -34 -4z"/>
<path d="M1970 2174 c0 -6 7 -19 16 -30 14 -18 14 -18 3 6 -14 31 -19 36 -19
24z"/>
<path d="M2008 2105 c17 -35 91 -112 156 -164 62 -49 163 -107 172 -98 3 2
-10 10 -28 17 -76 31 -213 143 -282 230 -15 19 -23 26 -18 15z"/>
<path d="M3084 2068 l-19 -23 23 19 c12 11 22 21 22 23 0 8 -8 2 -26 -19z"/>
<path d="M3627 2025 c-9 -19 -15 -35 -12 -35 7 0 37 61 33 66 -3 2 -12 -12
-21 -31z"/>
<path d="M1480 2043 c0 -6 8 -17 18 -24 16 -13 16 -13 2 6 -8 11 -16 22 -17
24 -2 2 -3 0 -3 -6z"/>
<path d="M1835 1910 c10 -11 20 -20 23 -20 3 0 -3 9 -13 20 -10 11 -20 20 -23
20 -3 0 3 -9 13 -20z"/>
<path d="M2360 1830 c8 -5 22 -9 30 -9 10 0 8 3 -5 9 -27 12 -43 12 -25 0z"/>
<path d="M1965 1720 c10 -11 20 -20 23 -20 3 0 -3 9 -13 20 -10 11 -20 20 -23
20 -3 0 3 -9 13 -20z"/>
<path d="M2282 1365 c0 -16 2 -22 5 -12 2 9 2 23 0 30 -3 6 -5 -1 -5 -18z"/>
<path d="M2391 1363 c-1 -28 2 -33 22 -32 15 1 17 3 5 6 -9 2 -19 16 -21 31
-4 24 -4 24 -6 -5z"/>
<path d="M2774 1332 c4 -12 2 -31 -4 -43 -10 -17 -9 -23 1 -30 8 -5 19 -8 24
-8 6 0 4 3 -2 6 -9 3 -11 17 -7 43 4 24 2 40 -6 45 -9 5 -10 2 -6 -13z"/>
<path d="M1915 1305 c22 -14 45 -25 50 -25 6 0 -8 11 -30 25 -22 13 -44 24
-50 24 -5 0 8 -11 30 -24z"/>
<path d="M2291 1320 c-1 -9 7 -23 18 -32 10 -8 21 -22 24 -29 5 -11 8 -10 17
4 7 10 20 16 33 14 12 -2 16 -2 10 0 -7 3 -13 8 -13 13 0 4 -10 8 -22 7 -34
-1 -52 6 -60 23 -6 13 -7 13 -7 0z"/>
<path d="M1380 3946 c-6 -8 -10 -25 -8 -38 2 -18 9 -23 33 -23 24 0 31 5 33
24 3 15 -3 30 -14 38 -23 17 -29 16 -44 -1z m48 -30 c-2 -13 -10 -21 -23 -21
-23 0 -33 34 -14 45 20 13 40 -1 37 -24z"/>
<path d="M1395 3920 c-3 -5 -1 -10 4 -10 6 0 11 5 11 10 0 6 -2 10 -4 10 -3 0
-8 -4 -11 -10z"/>
<path d="M3700 3946 c-6 -8 -10 -25 -8 -38 5 -40 67 -34 68 6 0 5 -9 1 -20 -9
-16 -15 -23 -16 -33 -6 -9 10 -8 11 8 6 19 -6 19 -6 2 8 -15 12 -15 16 -3 27
9 6 21 8 27 4 8 -4 9 -3 5 4 -10 16 -31 15 -46 -2z"/>
<path d="M803 3828 c-74 -98 -144 -200 -134 -194 5 3 34 41 64 84 30 42 69 96
87 120 17 23 30 42 27 42 -2 0 -22 -24 -44 -52z"/>
<path d="M4271 3786 c-10 -12 -8 -15 7 -20 17 -6 54 -54 197 -263 20 -29 40
-53 46 -53 5 0 1 10 -10 22 -11 12 -64 87 -117 167 -116 175 -108 165 -123
147z"/>
<path d="M769 3688 c-39 -57 -94 -134 -122 -173 -28 -38 -42 -64 -33 -56 10 8
50 62 89 120 40 58 93 127 118 154 42 43 49 57 28 57 -5 0 -40 -46 -80 -102z"/>
<path d="M4480 3606 c0 -2 8 -10 18 -17 15 -13 16 -12 3 4 -13 16 -21 21 -21
13z"/>
<path d="M614 3578 l-19 -23 23 19 c21 18 27 26 19 26 -2 0 -12 -10 -23 -22z"/>
<path d="M4549 3516 c6 -15 11 -48 11 -74 0 -26 3 -57 6 -69 12 -45 19 -21 16
56 -3 64 -7 83 -23 97 -20 18 -20 17 -10 -10z"/>
<path d="M557 3513 c-4 -3 -7 -27 -7 -52 0 -25 -4 -60 -9 -78 -7 -25 -6 -33 6
-37 8 -3 15 -6 16 -6 1 0 2 26 3 58 0 31 4 72 8 90 8 30 0 42 -17 25z"/>
<path d="M580 3336 c0 -2 7 -7 16 -10 8 -3 12 -2 9 4 -6 10 -25 14 -25 6z"/>
<path d="M490 2561 c0 -78 -4 -111 -12 -114 -24 -10 51 -7 76 3 26 9 26 11 26
115 l0 105 -45 0 -45 0 0 -109z"/>
<path d="M4563 2663 c-22 -4 -23 -9 -23 -109 0 -82 3 -104 14 -104 7 0 28 -3
45 -6 l32 -7 -3 114 c-3 124 -4 125 -65 112z"/>
<path d="M615 1805 c-49 -22 -49 -23 -22 -30 17 -5 42 -1 66 8 21 9 42 13 46
9 4 -4 2 3 -4 16 -14 27 -22 27 -86 -3z"/>
<path d="M4421 1811 c-9 -16 -8 -18 9 -14 11 3 20 12 20 19 0 20 -18 17 -29
-5z"/>
<path d="M4527 1789 c7 -7 15 -10 18 -7 3 3 -2 9 -12 12 -14 6 -15 5 -6 -5z"/>
<path d="M499 1760 c-17 -11 -4 -25 24 -25 22 0 24 -3 26 -54 1 -30 61 -116
61 -88 0 9 -5 19 -10 22 -6 4 -7 11 -4 17 4 6 3 8 -3 5 -10 -6 -33 33 -33 57
0 7 10 18 23 24 22 10 21 11 -6 11 -15 1 -30 7 -33 15 -7 19 -28 26 -45 16z"/>
<path d="M4538 1729 c17 -19 15 -54 -7 -99 -11 -22 -16 -40 -11 -40 14 0 43
73 44 109 1 28 -3 36 -19 39 -16 3 -18 1 -7 -9z"/>
<path d="M4476 1676 c3 -7 -15 -42 -38 -77 -24 -35 -60 -91 -81 -124 -20 -33
-47 -73 -60 -89 l-23 -28 -42 21 c-53 27 -54 19 -4 -14 39 -26 72 -25 72 1 0
7 8 19 18 26 23 18 92 104 92 116 0 5 6 15 14 22 8 6 12 19 9 27 -4 9 -2 14 3
10 10 -6 57 63 69 101 5 18 2 22 -14 22 -13 0 -19 -5 -15 -14z"/>
<path d="M650 1645 c5 -13 19 -43 30 -65 11 -22 20 -46 18 -53 -1 -7 13 -28
32 -48 19 -19 54 -58 78 -87 l42 -51 38 15 c54 23 57 29 32 68 -26 43 -36 48
-15 6 20 -39 20 -38 -22 -49 -34 -10 -40 -8 -64 15 -15 15 -38 46 -51 70 -20
39 -21 46 -8 54 12 8 11 10 -7 10 -25 0 -64 51 -84 108 -6 17 -15 32 -20 32
-5 0 -4 -11 1 -25z"/>
<path d="M646 1533 c9 -21 31 -70 50 -110 37 -78 41 -98 21 -90 -48 18 55
-143 192 -300 l71 -83 -20 -20 c-16 -16 -20 -33 -20 -94 l0 -74 -50 -7 c-56
-8 -72 -26 -85 -99 -5 -24 -14 -40 -25 -43 -24 -6 -40 -91 -40 -205 l0 -88
1728 -2 c1763 -1 1846 -1 1896 9 l29 5 -7 116 c-7 118 -14 145 -41 156 -13 5
-15 -12 -16 -117 0 -67 -3 -116 -6 -109 -3 7 -26 12 -63 12 -93 0 -90 -4 -90
124 0 81 3 107 11 96 21 -30 0 106 -22 144 l-21 36 21 0 c29 0 27 26 -3 45
-24 16 -24 17 -5 36 21 21 23 36 10 58 -5 8 -14 10 -22 5 -18 -11 24 46 56 76
45 42 136 158 140 177 1 10 7 17 12 16 5 -1 9 15 8 35 -1 27 13 65 53 142 30
58 59 110 64 117 5 7 8 20 6 30 -2 12 -20 -11 -53 -67 -93 -158 -205 -307
-279 -368 -22 -18 -21 5 0 29 15 17 15 18 -5 14 -18 -3 -20 -1 -11 15 6 11 6
21 1 24 -5 4 -12 0 -15 -6 -3 -7 -4 -1 -1 15 4 19 1 27 -9 27 -11 0 -12 6 -2
33 6 18 19 45 29 60 37 56 6 24 -57 -61 -36 -49 -99 -126 -140 -173 -42 -46
-76 -88 -76 -92 0 -5 16 -28 36 -52 20 -24 33 -49 29 -55 -3 -6 -24 -19 -46
-31 -65 -33 -292 -191 -468 -324 -90 -69 -167 -125 -172 -125 -5 0 -9 26 -9
58 l0 57 -657 -2 c-362 -2 -661 -3 -665 -3 -5 0 -8 -27 -8 -60 l0 -60 690 0
c443 0 690 -3 690 -10 0 -6 -257 -10 -719 -10 -648 0 -719 1 -725 16 -9 24 -8
25 22 19 24 -6 25 -5 7 6 -11 7 -60 42 -110 79 -183 136 -312 229 -372 266
-129 82 -193 127 -193 137 0 5 16 27 35 49 l36 39 -64 77 c-35 42 -100 125
-144 183 l-80 107 -31 -13 c-28 -13 -63 -19 -88 -16 -12 1 -114 100 -114 111
0 4 -7 13 -15 20 -8 7 -12 17 -8 23 4 6 1 7 -7 2 -10 -6 -12 -4 -7 9 4 9 3 15
-1 12 -4 -2 -20 15 -36 40 -15 24 -29 44 -31 44 -2 0 3 -17 11 -37z m3430
-647 c-4 -17 -8 -39 -9 -48 -1 -14 -11 -18 -42 -18 -23 0 -44 3 -48 6 -8 9 86
103 96 97 5 -3 6 -19 3 -37z m-2981 -13 c24 -29 32 -44 21 -40 -10 4 -31 7
-47 7 -27 0 -29 2 -29 40 0 22 4 40 8 40 4 0 25 -21 47 -47z m185 -203 c10 0
22 -4 25 -10 3 -5 13 -10 21 -10 20 0 113 -46 148 -73 6 -5 25 -17 41 -28 17
-10 50 -35 75 -54 90 -69 125 -91 148 -89 15 1 22 -4 22 -17 0 -18 -12 -19
-220 -19 l-219 0 -28 48 c-15 26 -30 49 -34 52 -4 3 -9 23 -12 45 l-4 40 -1
-45 c-2 -41 -15 -70 -31 -70 -4 0 -6 34 -6 75 0 91 -12 106 -80 107 -66 1 -77
-15 -73 -112 l3 -75 39 -6 c22 -4 53 -3 70 2 22 7 27 6 18 -3 -13 -13 -141
-18 -149 -5 -2 4 -5 45 -5 89 0 77 1 83 26 105 45 38 169 27 179 -16 2 -9 7
11 12 44 5 33 11 52 13 43 2 -10 12 -18 22 -18z m2585 -90 c-5 -63 -14 -101
-35 -147 l-29 -63 -208 0 c-114 0 -218 3 -230 6 -16 4 -23 14 -23 30 0 13 4
24 10 24 5 0 7 -7 4 -15 -8 -20 2 -19 25 4 10 10 40 26 67 36 50 19 135 75
190 126 16 16 70 49 120 74 112 57 119 53 109 -75z m-3010 50 c-3 -5 11 -14
30 -21 19 -7 35 -17 35 -22 0 -4 4 -6 9 -3 14 9 21 -34 20 -134 -1 -52 -3 -88
-5 -80 -4 12 -20 15 -69 14 -41 -1 -65 3 -65 10 0 6 -5 4 -10 -4 -7 -11 -10 1
-10 41 0 83 12 182 20 168 5 -7 10 0 15 19 4 21 11 29 21 25 7 -3 12 -9 9 -13z
m3205 -17 c19 -24 21 -36 16 -93 -3 -36 -6 -74 -7 -85 -1 -19 -9 -21 -78 -23
-42 -1 -83 3 -91 8 -10 7 7 10 57 10 66 0 74 2 89 25 20 31 14 129 -10 153
-17 17 -101 18 -122 1 -8 -7 -14 -37 -16 -82 -2 -45 -7 -72 -15 -75 -9 -3 -13
12 -13 51 0 118 14 135 112 136 50 1 59 -2 78 -26z"/>
<path d="M850 1520 c6 -11 13 -20 16 -20 2 0 0 9 -6 20 -6 11 -13 20 -16 20
-2 0 0 -9 6 -20z"/>
<path d="M1380 1225 c-18 -22 -8 -50 19 -50 32 0 49 28 32 49 -17 20 -35 20
-51 1z m40 -20 c0 -15 -6 -25 -14 -25 -22 0 -30 20 -9 21 10 0 13 3 6 6 -18 7
-16 23 2 23 9 0 15 -9 15 -25z"/>
<path d="M3690 1225 c-26 -32 25 -78 54 -49 9 8 16 21 16 27 0 7 -7 4 -14 -5
-16 -22 -42 -23 -49 -4 -7 19 18 40 38 32 9 -3 13 -2 10 4 -9 15 -41 12 -55
-5z"/>
<path d="M3710 1210 c0 -5 5 -10 10 -10 6 0 10 5 10 10 0 6 -4 10 -10 10 -5 0
-10 -4 -10 -10z"/>
<path d="M1731 877 l-23 -42 30 33 c17 17 35 32 39 32 12 0 194 -94 245 -126
22 -14 37 -21 34 -16 -11 19 -271 162 -292 162 -5 0 -20 -19 -33 -43z"/>
<path d="M3275 889 c-131 -67 -226 -121 -222 -126 3 -2 24 7 46 22 23 14 89
48 146 75 l105 49 17 -24 c10 -12 24 -31 31 -41 7 -11 2 1 -11 26 -14 25 -31
46 -39 47 -7 1 -40 -11 -73 -28z"/>
<path d="M3320 826 c-39 -16 -55 -28 -55 -41 0 -10 6 -20 13 -22 6 -3 12 2 12
9 0 8 18 24 40 37 22 12 42 26 45 31 8 13 10 13 -55 -14z"/>
<path d="M1792 810 c20 -11 40 -24 43 -30 8 -13 25 -3 25 14 0 7 -17 18 -39
24 -57 18 -71 14 -29 -8z"/>
</g>
</svg>
