<?xml version="1.0" standalone="no"?>
<!DOCTYPE svg PUBLIC "-//W3C//DTD SVG 20010904//EN"
 "http://www.w3.org/TR/2001/REC-SVG-20010904/DTD/svg10.dtd">
<svg version="1.0" xmlns="http://www.w3.org/2000/svg"
 width="512.000000pt" height="512.000000pt" viewBox="0 0 512.000000 512.000000"
 preserveAspectRatio="xMidYMid meet">

<g transform="translate(0.000000,512.000000) scale(0.100000,-0.100000)"
fill="#000000" stroke="none">
<path d="M2320 4616 c0 -61 2 -66 22 -66 17 0 19 3 10 12 -7 7 -12 27 -12 45
0 29 3 33 25 33 22 0 25 -4 25 -34 0 -19 -6 -36 -12 -39 -7 -2 -10 -8 -6 -12
4 -4 14 -5 23 -1 13 4 15 18 13 63 l-3 58 -42 3 -43 3 0 -65z"/>
<path d="M2710 4621 c0 -57 2 -61 23 -60 12 0 16 3 10 6 -7 2 -13 20 -13 39 0
30 3 34 26 34 24 0 26 -3 22 -40 -2 -25 0 -39 7 -37 5 2 10 28 10 58 l0 54
-42 3 -43 3 0 -60z"/>
<path d="M2050 4421 c0 -6 4 -13 10 -16 6 -3 7 1 4 9 -7 18 -14 21 -14 7z"/>
<path d="M1990 4398 c0 -11 22 -10 39 1 10 7 7 9 -12 8 -15 -1 -27 -5 -27 -9z"/>
<path d="M1970 4340 c-19 -11 -30 -19 -25 -19 6 0 26 8 45 19 19 11 31 19 25
19 -5 0 -26 -8 -45 -19z"/>
<path d="M3898 4320 c41 -25 54 -25 23 0 -13 11 -31 20 -40 20 -9 0 -3 -8 17
-20z"/>
<path d="M1209 4309 l-24 -20 30 17 c39 24 40 24 28 24 -6 0 -21 -9 -34 -21z"/>
<path d="M1866 4322 c-8 -13 -79 -52 -94 -52 -5 0 -15 11 -22 25 -7 14 -17 25
-22 25 -5 0 1 -18 13 -40 14 -24 30 -40 41 -40 12 0 16 4 12 12 -5 7 -3 8 5 3
13 -7 92 22 90 34 0 3 -4 15 -8 25 -5 14 -10 16 -15 8z"/>
<path d="M3231 4316 c-11 -13 -5 -19 37 -40 27 -14 52 -22 56 -19 3 4 6 1 6
-5 0 -7 7 -12 16 -12 17 0 43 27 43 45 0 6 -6 2 -13 -8 -13 -16 -16 -16 -66 7
-29 14 -56 30 -60 36 -5 8 -11 6 -19 -4z"/>
<path d="M2205 4260 c-22 -5 -98 -41 -170 -80 -71 -40 -175 -94 -230 -121 -82
-41 -115 -65 -184 -132 -119 -117 -524 -663 -569 -765 -13 -31 -15 -100 -17
-452 0 -228 1 -491 3 -584 l3 -168 106 -157 c231 -339 392 -535 525 -638 32
-24 152 -91 267 -149 135 -68 220 -117 242 -139 l34 -35 325 0 c179 0 335 3
348 6 12 4 22 12 22 19 0 15 140 93 325 181 77 36 167 85 200 109 133 95 321
324 575 705 58 87 64 100 70 165 10 102 12 516 4 845 l-7 284 -65 96 c-36 52
-95 136 -132 185 -37 50 -111 153 -165 230 -70 100 -132 173 -216 256 -65 64
-120 115 -123 112 -3 -3 -108 48 -233 113 l-228 119 -335 2 c-184 1 -353 -3
-375 -7z m305 -272 c0 -4 -4 -8 -9 -8 -6 0 -12 4 -15 8 -3 5 1 9 9 9 8 0 15
-4 15 -9z m150 2 c13 -8 13 -10 -2 -10 -9 0 -20 5 -23 10 -8 13 5 13 25 0z
m560 -329 c0 -4 11 -6 24 -4 30 6 46 -26 16 -34 -11 -3 -20 -6 -20 -7 0 -1 51
-53 113 -116 62 -63 145 -158 183 -210 71 -96 112 -142 172 -193 54 -46 36
-15 -49 84 -44 52 -88 105 -97 119 -9 14 -34 47 -55 73 -22 26 -37 51 -33 54
3 4 -39 52 -94 108 -87 89 -114 125 -95 125 3 0 31 -16 62 -36 62 -40 87 -66
156 -168 27 -38 59 -79 71 -91 44 -40 131 -138 116 -131 -8 4 -6 1 5 -6 38
-24 105 -102 125 -146 35 -73 41 -175 38 -602 -4 -443 -4 -444 -64 -509 -19
-20 -52 -56 -75 -81 -51 -55 -31 -25 33 51 54 63 60 77 21 52 l-26 -18 16 26
c15 23 18 76 23 447 4 242 3 422 -2 422 -5 0 -7 21 -5 46 2 31 0 44 -7 40 -6
-4 -9 -13 -5 -21 3 -10 -2 -15 -16 -15 -12 0 -22 -1 -23 -2 -1 -2 -5 -208 -8
-458 l-5 -455 -77 -100 c-43 -55 -112 -147 -155 -205 -43 -58 -116 -143 -163
-189 -74 -73 -81 -83 -55 -77 63 16 163 120 305 321 42 61 98 133 125 160 l47
50 -45 -55 c-79 -98 -126 -177 -113 -190 8 -8 7 -10 -5 -5 -15 6 -28 -14 -33
-50 -1 -5 -8 -20 -14 -33 -7 -12 -10 -28 -6 -34 5 -7 3 -8 -6 -3 -10 6 -12 4
-7 -8 4 -11 -14 -43 -54 -96 -116 -155 -184 -210 -381 -307 -43 -21 -80 -35
-84 -32 -18 18 18 49 121 106 63 35 115 65 115 68 0 6 -69 -27 -114 -54 -44
-27 -224 -112 -237 -112 -5 0 -9 12 -9 28 0 37 -10 72 -21 72 -5 0 -9 -24 -9
-54 0 -42 -4 -56 -17 -61 -25 -11 -429 -17 -483 -7 l-45 8 1 57 c2 43 -2 57
-12 57 -10 0 -14 -13 -14 -46 l0 -47 -32 6 c-18 4 -44 9 -56 13 -22 6 -23 5
-11 -14 20 -33 7 -35 -62 -9 -140 50 -370 191 -354 217 3 4 -2 13 -10 20 -8 7
-15 9 -15 5 0 -4 -7 -2 -15 5 -8 7 -14 18 -13 24 1 6 -3 21 -10 34 -7 12 -10
27 -7 31 3 5 -29 54 -70 109 -41 54 -75 102 -75 105 0 4 -7 15 -15 24 -8 10
-15 23 -16 28 0 6 -8 18 -16 28 -12 13 -13 17 -3 17 8 0 6 6 -6 18 -16 14 -29
52 -18 52 2 0 44 -60 93 -132 94 -140 189 -252 254 -299 77 -56 57 -16 -40 79
-97 95 -178 209 -176 244 1 10 -6 23 -16 30 -38 27 -168 195 -178 230 -7 25
-9 175 -5 483 l5 446 -27 -7 c-27 -6 -27 -6 -20 32 10 58 19 71 114 169 47 50
113 126 145 170 68 93 263 297 268 281 3 -8 8 -7 19 2 13 10 18 9 28 -3 12
-14 1 -29 -77 -108 -102 -104 -257 -293 -249 -305 2 -4 0 -14 -6 -22 -8 -12
-9 -11 -4 4 5 16 4 17 -8 7 -12 -10 -13 -16 -3 -26 10 -11 15 -9 27 11 8 13
21 24 28 24 8 0 28 15 45 33 16 17 24 24 17 15 -18 -25 -7 -22 16 4 10 12 13
18 5 13 -9 -5 -12 -3 -9 6 3 8 10 13 16 12 6 -2 9 3 6 10 -9 24 193 212 228
212 7 0 23 6 35 13 12 6 39 11 60 10 21 0 52 6 70 15 18 10 40 19 50 20 10 2
25 7 33 10 8 3 40 11 70 18 30 6 64 16 75 22 14 7 17 6 10 -1 -5 -6 -50 -25
-100 -42 -136 -48 -185 -80 -250 -163 l-56 -72 50 55 c28 30 56 55 63 55 7 1
12 7 10 14 -1 7 3 11 10 9 7 -3 18 0 24 6 51 48 69 57 168 90 43 14 88 33 99
43 14 13 18 13 12 3 -7 -12 -6 -13 6 -4 13 10 94 18 164 16 17 0 56 -1 88 -2
31 -1 57 -5 57 -9 0 -5 21 -12 48 -15 52 -8 171 -44 188 -57 6 -5 14 -6 17 -2
4 3 7 2 7 -4 0 -6 14 -17 32 -24 18 -7 40 -20 50 -29 10 -8 27 -23 38 -32 11
-10 25 -18 30 -18 6 0 10 -4 10 -9 0 -5 12 -11 28 -14 46 -10 222 -173 222
-206 0 -5 3 -11 8 -13 10 -4 42 -74 58 -126 l14 -44 -105 4 c-58 1 -105 -1
-105 -5 0 -5 -6 -5 -12 0 -7 4 -5 -5 5 -20 19 -29 22 -41 8 -32 -5 3 -13 0
-17 -6 -4 -8 -3 -9 4 -5 12 7 38 -42 27 -52 -3 -3 -5 1 -5 8 0 7 -2 11 -5 8
-10 -9 7 -38 18 -31 6 3 7 1 3 -6 -4 -6 4 -46 18 -89 38 -117 49 -199 44 -345
-4 -119 -8 -142 -40 -232 -19 -55 -43 -117 -52 -138 -9 -22 -12 -36 -7 -32 7
3 8 0 5 -9 -3 -9 -10 -13 -15 -10 -5 3 -9 0 -9 -6 0 -6 -12 -29 -26 -53 -22
-36 -18 -33 36 26 71 76 94 86 85 33 -6 -29 -4 -35 14 -41 12 -3 21 -11 21
-16 0 -5 6 -9 14 -9 8 0 19 -14 25 -30 12 -35 64 -83 93 -85 11 -1 27 9 35 22
15 22 14 25 -5 43 -20 19 -20 24 -16 557 5 610 7 666 28 698 15 22 12 27 -56
117 -40 51 -120 143 -179 203 -93 96 -106 113 -98 133 5 13 17 22 30 22 21 0
21 0 -2 20 -13 10 -18 19 -11 20 6 0 12 -4 12 -9z m-1368 -33 c-29 -11 -176
-168 -254 -269 -40 -53 -103 -130 -139 -170 -105 -117 -120 -150 -122 -263
l-2 -96 30 -2 30 -1 -33 -4 -32 -4 6 -392 c4 -216 10 -399 15 -408 4 -8 3 -22
-2 -30 -5 -8 -9 -9 -9 -2 0 6 -9 15 -21 18 -55 18 -65 147 -52 675 l9 345 28
55 c16 30 61 86 100 125 76 77 109 116 174 210 44 64 157 181 212 218 27 19
38 22 56 13 20 -10 21 -12 6 -18z m1478 -718 c0 -11 -2 -20 -5 -20 -2 0 -9 9
-15 20 -9 16 -8 20 5 20 8 0 15 -9 15 -20z m70 1 c0 -28 -20 -37 -21 -9 -1 23
-1 22 -8 -2 -6 -22 -8 -23 -14 -7 -12 30 -8 37 18 37 18 0 25 -5 25 -19z m360
-32 c0 -5 -4 -9 -10 -9 -5 0 -10 7 -10 16 0 8 5 12 10 9 6 -3 10 -10 10 -16z
m0 -59 c-20 -13 -33 -13 -25 0 3 6 14 10 23 10 15 0 15 -2 2 -10z m-4 -378
c-12 -11 -14 4 -8 53 l7 50 3 -49 c2 -26 1 -51 -2 -54z m-346 53 c0 -8 -2 -15
-4 -15 -2 0 -6 7 -10 15 -3 8 -1 15 4 15 6 0 10 -7 10 -15z m-2023 -52 c-3
-10 -5 -2 -5 17 0 19 2 27 5 18 2 -10 2 -26 0 -35z m-10 -45 c-3 -8 -6 -5 -6
6 -1 11 2 17 5 13 3 -3 4 -12 1 -19z m2376 2 c-3 -11 0 -20 6 -20 6 0 11 -12
10 -27 l-1 -28 -8 25 c-5 15 -8 -43 -9 -142 -1 -117 -4 -168 -12 -168 -7 0 -9
9 -5 23 3 12 6 97 6 190 0 93 4 167 9 167 5 0 7 -9 4 -20z m-2376 -207 c-2
-37 -3 -9 -3 62 0 72 1 102 3 68 2 -34 2 -93 0 -130z m2390 95 c-3 -7 -5 -2
-5 12 0 14 2 19 5 13 2 -7 2 -19 0 -25z m-2390 -215 c-3 -10 -5 -2 -5 17 0 19
2 27 5 18 2 -10 2 -26 0 -35z m43 -138 c13 -14 21 -25 18 -25 -2 0 -15 11 -28
25 -13 14 -21 25 -18 25 2 0 15 -11 28 -25z m251 -422 c13 -16 12 -17 -3 -4
-10 7 -18 15 -18 17 0 8 8 3 21 -13z m163 -243 c60 -36 229 -124 306 -158 14
-6 18 -11 10 -11 -21 -1 -201 87 -300 147 -47 28 -110 74 -140 102 l-55 52 55
-45 c30 -25 86 -63 124 -87z m1516 36 c0 -2 -8 -10 -17 -17 -16 -13 -17 -12
-4 4 13 16 21 21 21 13z m-40 -30 c0 -7 -119 -80 -177 -110 -85 -43 -75 -29
13 18 45 24 99 55 120 70 40 27 44 29 44 22z m-990 -176 c0 -6 -11 -8 -27 -4
-40 10 -41 14 -5 14 18 0 32 -5 32 -10z m525 0 c4 -6 -9 -10 -32 -10 -28 0
-34 3 -23 10 20 13 47 13 55 0z m-345 -35 c0 -16 -17 -19 -44 -9 -26 10 -18
24 14 24 20 0 30 -5 30 -15z m151 0 c0 -5 -9 -11 -21 -13 -20 -3 -27 8 -13 22
10 9 34 3 34 -9z"/>
<path d="M1875 3419 c-17 -12 -39 -33 -49 -48 -12 -16 0 -9 30 18 27 25 51 46
53 48 2 2 2 3 0 3 -2 0 -18 -10 -34 -21z"/>
<path d="M2572 3093 l-2 -53 -47 -1 c-135 -2 -185 -10 -211 -31 -13 -11 -15
-10 -9 4 4 12 2 15 -8 12 -8 -3 -15 -18 -17 -32 l-4 -27 -14 28 c-18 37 -32
34 -18 -4 9 -27 8 -32 -13 -46 -40 -27 -119 -114 -147 -162 -15 -25 -40 -85
-57 -133 l-30 -87 -33 16 c-38 18 -39 29 -12 114 10 35 17 65 15 67 -6 6 -45
-127 -45 -154 0 -17 8 -27 25 -34 23 -9 25 -15 26 -72 1 -115 6 -159 19 -171
10 -9 11 -7 5 13 -16 53 -15 53 10 0 75 -159 92 -187 170 -265 129 -131 261
-184 426 -172 136 11 276 81 376 190 78 84 173 320 173 427 0 64 2 67 28 62
24 -5 25 -4 18 39 -4 24 -9 46 -12 49 -3 3 -17 -8 -30 -23 -17 -20 -23 -36
-19 -50 4 -15 0 -12 -12 8 -9 17 -16 33 -15 38 1 4 -3 7 -9 7 -6 0 -8 7 -5 16
4 10 2 13 -6 8 -8 -5 -9 -2 -5 9 8 20 -12 69 -24 61 -5 -3 -6 2 -3 11 8 19
-14 47 -30 38 -6 -4 -5 1 3 10 7 9 9 17 4 17 -6 0 -49 37 -96 83 -52 49 -95
83 -109 84 -13 0 -61 13 -107 27 -46 14 -96 26 -112 26 -27 0 -28 2 -32 53
l-3 52 -2 -52z m-7 -203 c0 -16 -6 -26 -19 -28 -27 -6 -40 12 -26 38 15 28 45
22 45 -10z m446 -67 c13 -16 12 -17 -3 -4 -17 13 -22 21 -14 21 2 0 10 -8 17
-17z m-352 -169 c22 -14 52 -44 67 -67 57 -87 28 -227 -60 -294 -24 -18 -50
-33 -59 -33 -10 0 -17 -5 -17 -11 0 -6 -7 -8 -16 -5 -13 5 -15 1 -10 -19 5
-20 3 -25 -13 -25 -11 0 -23 5 -26 10 -3 6 1 10 9 10 28 0 6 29 -27 35 -115
25 -183 193 -127 310 27 57 71 94 140 119 30 11 101 -4 139 -30z m445 -150 c3
-9 6 -36 6 -60 0 -45 0 -45 -32 -42 -29 3 -32 6 -35 45 -3 34 0 44 19 57 28
20 34 20 42 0z m-1021 -33 c-5 -20 -33 -38 -33 -21 0 6 -7 10 -16 10 -8 0 -13
4 -9 9 3 5 0 13 -7 17 -9 6 -5 10 12 15 34 8 59 -6 53 -30z m-11 -63 c-17 -8
-26 -8 -34 0 -9 9 -4 12 23 11 32 0 33 -1 11 -11z m508 -296 c0 -41 -51 -57
-70 -23 -5 11 -7 26 -4 35 12 32 74 22 74 -12z m410 35 c0 -2 -10 -12 -22 -23
l-23 -19 19 23 c18 21 26 27 26 19z m-447 -214 c-7 -2 -21 -2 -30 0 -10 3 -4
5 12 5 17 0 24 -2 18 -5z"/>
<path d="M2489 2602 c-37 -22 -50 -47 -55 -106 -4 -40 -1 -58 15 -83 11 -18
28 -33 36 -33 8 0 15 -4 15 -10 0 -17 113 -12 139 6 64 45 59 176 -9 224 -34
24 -103 25 -141 2z m140 -51 c37 -34 39 -65 11 -121 -36 -71 -99 -82 -148 -26
-41 47 -47 71 -27 115 29 66 110 82 164 32z"/>
<path d="M2233 3051 c-64 -35 -145 -103 -179 -150 -16 -21 4 -6 47 36 41 40
103 88 139 108 36 19 61 35 55 35 -5 0 -33 -13 -62 -29z"/>
<path d="M3750 3040 c6 -11 13 -20 16 -20 2 0 0 9 -6 20 -6 11 -13 20 -16 20
-2 0 0 -9 6 -20z"/>
<path d="M2930 3018 c8 -8 44 -41 80 -73 l65 -59 -50 53 c-27 29 -63 62 -80
73 -16 12 -23 14 -15 6z"/>
<path d="M1652 2416 l0 -499 -31 -13 c-17 -7 -31 -15 -31 -18 0 -7 66 -117 84
-140 9 -11 20 -15 28 -10 10 6 10 4 -1 -9 -14 -18 -16 -15 97 -120 114 -105
156 -137 182 -137 39 0 92 39 114 84 17 34 17 43 7 70 -7 17 -19 46 -26 65 -7
19 -14 28 -17 20 -3 -9 -13 -4 -34 17 -16 17 -60 60 -99 95 -46 41 -55 48 -27
18 23 -24 42 -48 42 -53 0 -4 14 -19 31 -33 20 -18 29 -32 26 -45 -4 -15 -3
-17 8 -8 10 8 17 6 29 -12 24 -34 19 -44 -9 -18 -14 13 -25 20 -25 15 0 -5
-13 4 -30 20 -16 15 -28 31 -27 34 4 14 -42 53 -54 46 -7 -5 -10 -4 -6 2 4 6
-14 18 -41 28 -26 10 -59 29 -74 43 -23 21 -26 30 -21 66 3 23 9 46 14 52 5 6
8 13 6 15 -1 3 11 -9 26 -26 l29 -30 -20 30 c-11 17 -23 40 -26 53 -7 20 -4
22 27 22 40 0 96 -25 75 -33 -8 -3 -8 -6 -2 -6 7 -1 20 7 31 17 10 9 14 14 7
9 -16 -10 -75 105 -108 211 -44 142 -44 324 0 487 9 33 18 78 20 100 l4 40
-33 -38 c-30 -36 -35 -38 -82 -35 l-50 3 -6 60 c-3 33 -6 -165 -7 -439z m75
72 c-3 -8 -6 -5 -6 6 -1 11 2 17 5 13 3 -3 4 -12 1 -19z m13 -122 c0 -3 -4 -8
-10 -11 -5 -3 -10 -1 -10 4 0 6 5 11 10 11 6 0 10 -2 10 -4z m-33 -98 c-3 -8
-6 -5 -6 6 -1 11 2 17 5 13 3 -3 4 -12 1 -19z m239 -610 c8 -26 -17 -48 -57
-48 -42 0 -50 37 -15 67 31 26 60 19 72 -19z"/>
<path d="M3070 2876 c0 -2 8 -10 18 -17 15 -13 16 -12 3 4 -13 16 -21 21 -21
13z"/>
<path d="M1991 2812 c-7 -13 -6 -19 2 -19 7 0 13 9 13 19 0 10 -1 18 -3 18 -1
0 -7 -8 -12 -18z"/>
<path d="M1970 2174 c0 -17 57 -101 101 -149 63 -68 177 -150 248 -179 92 -37
100 -32 11 7 -42 18 -97 47 -122 65 -71 49 -173 154 -207 213 -17 30 -31 49
-31 43z"/>
<path d="M3084 2068 l-19 -23 23 19 c12 11 22 21 22 23 0 8 -8 2 -26 -19z"/>
<path d="M3627 2025 c-9 -19 -15 -35 -12 -35 7 0 37 61 33 66 -3 2 -12 -12
-21 -31z"/>
<path d="M1835 1910 c10 -11 20 -20 23 -20 3 0 -3 9 -13 20 -10 11 -20 20 -23
20 -3 0 3 -9 13 -20z"/>
<path d="M1965 1720 c10 -11 20 -20 23 -20 3 0 -3 9 -13 20 -10 11 -20 20 -23
20 -3 0 3 -9 13 -20z"/>
<path d="M2282 1365 c0 -16 2 -22 5 -12 2 9 2 23 0 30 -3 6 -5 -1 -5 -18z"/>
<path d="M2391 1363 c-1 -28 2 -33 22 -32 15 1 17 3 5 6 -9 2 -19 16 -21 31
-4 24 -4 24 -6 -5z"/>
<path d="M2775 1330 c3 -10 1 -29 -5 -41 -12 -22 -1 -39 25 -39 6 0 3 5 -5 10
-12 7 -13 13 -4 27 7 11 8 27 3 41 -10 27 -23 30 -14 2z"/>
<path d="M1915 1305 c22 -14 45 -25 50 -25 6 0 -8 11 -30 25 -22 13 -44 24
-50 24 -5 0 8 -11 30 -24z"/>
<path d="M2291 1320 c-1 -9 7 -23 18 -32 10 -8 21 -22 24 -29 5 -11 8 -10 17
4 7 10 20 16 33 14 12 -2 16 -2 10 0 -7 3 -13 8 -13 13 0 4 -10 8 -22 7 -34
-1 -52 6 -60 23 -6 13 -7 13 -7 0z"/>
<path d="M1380 3946 c-6 -8 -10 -25 -8 -38 2 -18 9 -23 33 -23 24 0 31 5 33
24 3 15 -3 30 -14 38 -23 17 -29 16 -44 -1z m48 -30 c-2 -13 -10 -21 -23 -21
-23 0 -33 34 -14 45 20 13 40 -1 37 -24z"/>
<path d="M1395 3920 c-3 -5 -1 -10 4 -10 6 0 11 5 11 10 0 6 -2 10 -4 10 -3 0
-8 -4 -11 -10z"/>
<path d="M3700 3946 c-6 -8 -10 -25 -8 -38 5 -40 67 -34 68 6 0 5 -9 1 -20 -9
-16 -15 -23 -16 -33 -6 -9 10 -8 11 8 6 19 -6 19 -6 2 8 -15 12 -15 16 -3 27
9 6 21 8 27 4 8 -4 9 -3 5 4 -10 16 -31 15 -46 -2z"/>
<path d="M814 3843 c-15 -21 -39 -54 -52 -73 l-24 -35 26 30 c34 39 89 115 83
115 -3 0 -17 -17 -33 -37z"/>
<path d="M4271 3786 c-10 -12 -8 -15 7 -20 17 -6 54 -54 197 -263 20 -29 40
-53 46 -53 5 0 0 10 -11 23 -12 12 -65 87 -117 167 -116 174 -107 164 -122
146z"/>
<path d="M769 3688 c-39 -57 -94 -134 -122 -173 -28 -38 -42 -64 -33 -56 10 8
50 62 89 120 40 58 93 127 118 154 42 43 49 57 28 57 -5 0 -40 -46 -80 -102z"/>
<path d="M695 3679 c-20 -28 -32 -48 -26 -45 12 8 74 96 67 96 -2 0 -21 -23
-41 -51z"/>
<path d="M4480 3606 c0 -2 8 -10 18 -17 15 -13 16 -12 3 4 -13 16 -21 21 -21
13z"/>
<path d="M614 3578 l-19 -23 23 19 c21 18 27 26 19 26 -2 0 -12 -10 -23 -22z"/>
<path d="M4549 3516 c6 -15 11 -48 11 -74 0 -26 3 -57 6 -69 12 -45 19 -21 16
56 -3 64 -7 83 -23 97 -20 18 -20 17 -10 -10z"/>
<path d="M557 3513 c-4 -3 -7 -27 -7 -52 0 -25 -4 -60 -9 -78 -7 -25 -6 -33 6
-37 8 -3 15 -6 16 -6 1 0 2 26 3 58 0 31 4 72 8 90 8 30 0 42 -17 25z"/>
<path d="M580 3336 c0 -2 7 -7 16 -10 8 -3 12 -2 9 4 -6 10 -25 14 -25 6z"/>
<path d="M490 2561 c0 -78 -4 -111 -12 -114 -24 -10 51 -7 76 3 26 9 26 11 26
115 l0 105 -45 0 -45 0 0 -109z"/>
<path d="M4563 2663 c-22 -4 -23 -9 -23 -109 0 -82 3 -104 14 -104 7 0 28 -3
45 -6 l32 -7 -3 114 c-3 124 -4 125 -65 112z"/>
<path d="M616 1806 c-47 -22 -49 -23 -24 -29 14 -4 44 0 66 7 22 8 43 11 47 8
4 -4 2 3 -4 16 -14 27 -22 27 -85 -2z"/>
<path d="M4427 1823 c-11 -11 -8 -23 6 -23 8 0 14 7 14 15 0 16 -9 19 -20 8z"/>
<path d="M499 1759 c-11 -6 -11 -11 -1 -21 10 -10 15 -9 28 4 13 13 13 16 1
21 -7 3 -20 1 -28 -4z"/>
<path d="M4538 1729 c17 -19 15 -54 -7 -99 -11 -22 -16 -40 -11 -40 12 0 51
99 48 123 -2 12 -12 23 -23 25 -16 3 -18 1 -7 -9z"/>
<path d="M548 1725 c-12 -12 11 -86 36 -115 33 -40 34 -23 1 26 -31 46 -32 68
-2 82 22 11 22 11 -4 11 -14 1 -28 -1 -31 -4z"/>
<path d="M4475 1680 c6 -10 -29 -85 -44 -95 -6 -3 -33 -43 -60 -88 -28 -45
-61 -95 -74 -111 l-23 -28 -42 21 c-53 27 -54 19 -4 -14 39 -25 72 -26 72 0 0
6 9 20 21 31 39 35 116 149 111 164 -3 8 -1 12 3 8 8 -8 59 64 70 100 5 18 2
22 -15 22 -12 0 -18 -4 -15 -10z"/>
<path d="M649 1646 c5 -12 19 -41 30 -62 12 -21 21 -45 21 -52 0 -12 34 -56
118 -153 l33 -38 37 16 c53 22 55 26 32 67 -26 43 -37 48 -15 6 20 -39 20 -38
-22 -49 -34 -10 -40 -8 -64 15 -15 15 -38 46 -51 70 -20 39 -21 46 -8 54 12 8
11 10 -7 10 -25 0 -64 51 -84 108 -6 17 -15 32 -20 32 -5 0 -5 -10 0 -24z"/>
<path d="M656 1513 c80 -176 78 -171 61 -190 -14 -17 -10 -25 51 -109 37 -50
100 -130 140 -177 l73 -86 -20 -20 c-17 -17 -21 -34 -21 -95 l0 -73 -38 -7
c-48 -7 -88 -48 -97 -99 -4 -21 -15 -42 -25 -47 -24 -13 -40 -90 -40 -189 0
-65 3 -80 18 -87 24 -12 3529 -20 3588 -8 l30 6 0 112 c-1 95 -4 116 -21 141
l-20 30 -5 -125 c-3 -69 -7 -120 -8 -114 -1 7 -27 13 -64 14 -35 1 -69 2 -75
2 -10 1 -13 32 -13 117 0 84 3 112 11 101 7 -11 8 4 3 50 -4 44 -12 71 -25 83
-25 23 -24 47 1 47 28 0 25 26 -4 45 l-25 16 20 20 c12 12 18 27 15 36 -3 8
-6 19 -6 25 0 6 -7 7 -16 4 -20 -7 11 37 51 74 32 30 120 142 120 153 0 4 5
11 10 15 6 4 10 14 10 22 -1 8 3 21 8 28 6 7 11 23 12 37 3 25 59 140 101 207
14 22 24 47 22 56 -2 10 -23 -17 -53 -68 -63 -108 -195 -294 -243 -342 -38
-38 -69 -50 -59 -23 4 8 2 17 -3 20 -6 4 -10 15 -10 26 0 11 -5 17 -10 14 -6
-4 -10 -3 -9 2 1 4 0 10 -1 13 -5 11 -5 68 0 67 3 -1 5 0 5 3 0 3 11 23 24 45
32 54 17 37 -59 -63 -34 -46 -93 -118 -131 -160 -38 -42 -69 -81 -69 -85 0 -5
16 -28 36 -52 20 -24 33 -49 29 -55 -3 -6 -24 -19 -46 -31 -65 -33 -292 -191
-468 -324 -90 -69 -167 -125 -172 -125 -5 0 -9 26 -9 58 l0 57 -656 -2 c-360
-2 -659 -5 -665 -8 -5 -4 -9 -31 -9 -61 l0 -54 690 0 c443 0 690 -3 690 -10 0
-6 -257 -10 -719 -10 -648 0 -719 1 -725 16 -9 24 -8 25 22 18 23 -5 21 -2
-15 22 -23 16 -129 92 -235 170 -106 77 -214 154 -240 170 -111 70 -178 117
-178 127 0 5 16 27 35 49 l36 39 -64 77 c-35 42 -100 125 -144 183 l-80 107
-33 -14 c-18 -8 -40 -14 -50 -14 -10 0 -21 -6 -23 -12 -4 -10 -6 -10 -6 0 -1
7 -5 11 -10 8 -5 -4 -24 12 -41 34 -17 22 -37 37 -42 34 -6 -4 -8 -2 -5 3 4 6
0 13 -8 17 -8 3 -15 10 -15 16 0 6 -7 18 -15 27 -8 8 -12 19 -9 25 5 7 2 8 -6
3 -10 -6 -12 -4 -7 9 4 9 3 15 -1 12 -4 -2 -20 15 -36 40 -15 24 -30 44 -32
44 -2 0 8 -26 22 -57z m3420 -627 c-4 -17 -8 -39 -9 -48 -1 -14 -11 -18 -42
-18 -23 0 -44 3 -48 6 -8 9 86 103 96 97 5 -3 6 -19 3 -37z m-2981 -13 c24
-29 32 -44 21 -40 -10 4 -31 7 -47 7 -27 0 -29 2 -29 40 0 22 4 40 8 40 4 0
25 -21 47 -47z m198 -208 c18 -4 35 -7 39 -6 14 2 183 -102 256 -158 77 -59
152 -102 164 -94 5 2 8 -5 8 -16 0 -21 -5 -21 -220 -21 l-219 0 -28 48 c-15
26 -30 49 -34 52 -4 3 -9 28 -12 55 l-3 50 -2 -53 c-2 -45 -17 -82 -34 -82 -3
0 -4 34 -4 75 1 91 -10 106 -79 107 -36 1 -51 -4 -61 -17 -17 -23 -19 -161 -3
-171 7 -4 37 -7 68 -7 54 -1 54 -1 20 -9 -48 -12 -115 5 -117 29 -1 10 -2 47
-2 83 -1 58 1 67 25 87 41 36 151 29 177 -11 4 -5 10 14 14 44 5 30 10 48 12
39 1 -9 17 -20 35 -24z m2567 15 c19 -35 2 -177 -30 -247 l-29 -63 -215 0
c-118 0 -221 3 -230 6 -18 7 -22 54 -5 54 5 0 8 -4 4 -9 -3 -5 -1 -12 4 -15 5
-3 11 1 15 9 6 17 105 67 117 59 5 -3 9 -1 9 3 0 5 14 17 31 27 16 10 57 40
91 68 50 42 194 125 220 127 4 1 12 -8 18 -19z m-3000 -46 c0 -9 18 -22 39
-31 48 -19 51 -29 50 -153 -1 -52 -3 -88 -5 -80 -4 12 -18 14 -69 12 -49 -3
-65 0 -65 10 0 10 -3 9 -10 -2 -7 -10 -9 6 -9 55 1 64 14 183 18 160 1 -5 8 5
16 23 14 33 35 36 35 6z m3200 -21 c19 -24 21 -36 16 -93 -3 -36 -6 -74 -7
-85 -1 -19 -9 -21 -78 -23 -42 -1 -83 3 -91 8 -10 7 6 9 54 8 61 -1 71 1 87
21 22 26 25 91 8 140 -11 32 -22 36 -94 31 -46 -3 -54 -16 -57 -93 -2 -45 -7
-72 -15 -75 -9 -3 -13 12 -13 51 0 118 14 135 112 136 50 1 59 -2 78 -26z"/>
<path d="M1380 1225 c-18 -22 -8 -50 19 -50 32 0 49 28 32 49 -17 20 -35 20
-51 1z m40 -20 c0 -15 -6 -25 -14 -25 -22 0 -30 20 -9 21 10 0 13 3 6 6 -18 7
-16 23 2 23 9 0 15 -9 15 -25z"/>
<path d="M3690 1225 c-26 -32 25 -78 54 -49 9 8 16 21 16 27 0 7 -7 4 -14 -5
-16 -22 -42 -23 -49 -4 -7 19 18 40 38 32 9 -3 13 -2 10 4 -9 15 -41 12 -55
-5z"/>
<path d="M3710 1210 c0 -5 5 -10 10 -10 6 0 10 5 10 10 0 6 -4 10 -10 10 -5 0
-10 -4 -10 -10z"/>
<path d="M4094 1195 c3 -21 16 -31 16 -12 0 9 -4 18 -9 21 -5 4 -8 -1 -7 -9z"/>
<path d="M1732 877 l-23 -42 29 34 29 34 41 -16 c43 -17 217 -111 241 -131 11
-8 13 -8 8 1 -12 19 -270 163 -293 163 -5 0 -19 -19 -32 -43z"/>
<path d="M3275 889 c-131 -67 -226 -121 -222 -126 3 -2 24 7 46 22 23 14 89
48 146 75 l105 49 17 -24 c10 -12 24 -31 31 -41 7 -11 2 1 -11 26 -14 25 -31
46 -39 47 -7 1 -40 -11 -73 -28z"/>
<path d="M3320 826 c-39 -16 -55 -28 -55 -41 0 -10 6 -20 13 -22 6 -3 12 2 12
9 0 8 18 24 40 37 22 12 42 26 45 31 8 13 10 13 -55 -14z"/>
<path d="M1792 810 c20 -11 40 -24 43 -30 8 -13 25 -3 25 14 0 7 -17 18 -39
24 -57 18 -71 14 -29 -8z"/>
</g>
</svg>
